<?xml version="1.0" encoding="UTF-8" standalone="no"?>
<svg
   xmlns:dc="http://purl.org/dc/elements/1.1/"
   xmlns:cc="http://creativecommons.org/ns#"
   xmlns:rdf="http://www.w3.org/1999/02/22-rdf-syntax-ns#"
   xmlns:svg="http://www.w3.org/2000/svg"
   xmlns="http://www.w3.org/2000/svg"
   id="SVGRoot"
   version="1.1"
   viewBox="0 0 99.999542 99.031708"
   height="99.031708"
   width="99.999542">
  <defs
     id="defs72">
    <clipPath
       id="clipPath3880"
       clipPathUnits="userSpaceOnUse">
      <path
         id="path3878"
         d="M 0,1080 H 1920 V 0 H 0 Z" />
    </clipPath>
  </defs>
  <metadata
     id="metadata75">
    <rdf:RDF>
      <cc:Work
         rdf:about="">
        <dc:format>image/svg+xml</dc:format>
        <dc:type
           rdf:resource="http://purl.org/dc/dcmitype/StillImage" />
        <dc:title></dc:title>
      </cc:Work>
    </rdf:RDF>
  </metadata>
  <g
     transform="translate(-1.9079503e-4,-0.50195213)"
     id="layer1">
    <g
       id="g3874"
       transform="matrix(0.13095559,0,0,-0.13095559,-70.434867,137.24904)">
      <g
         clip-path="url(#clipPath3880)"
         id="g3876">
        <g
           transform="translate(502.6613,111.2677)"
           id="g3882" />
        <g
           transform="translate(616.6939,108.87)"
           id="g3886" />
        <g
           transform="translate(719.7661,143.1137)"
           id="g3890" />
        <g
           transform="translate(929.8488,203.5552)"
           id="g3894" />
        <g
           transform="translate(1004.155,169.482)"
           id="g3898" />
        <g
           transform="translate(1091.0485,109.7261)"
           id="g3902" />
        <g
           transform="translate(1200.8857,169.482)"
           id="g3906" />
        <g
           transform="translate(1321.9359,181.6379)"
           id="g3910" />
        <g
           transform="translate(1377.067,110.0705)"
           id="g3914" />
        <g
           transform="translate(919.0625,617.1176)"
           id="g3918">
          <path
             id="path3920"
             style="fill:#e5731f;fill-opacity:1;fill-rule:nonzero;stroke:none"
             d="m 0,0 c 1.93,17.945 4.133,37.083 6.607,57.404 2.477,20.315 4.895,39.447 7.252,57.398 2.359,17.951 4.454,33.531 6.297,46.736 1.33,9.562 2.397,16.78 3.212,21.726 -15.343,2.222 -31.331,2.978 -44.014,2.314 -2.271,-16.985 -4.678,-35.574 -7.232,-55.789 -2.808,-22.183 -5.791,-44.623 -8.955,-67.308 -3.169,-22.691 -6.378,-45.045 -9.632,-67.05 -3.258,-22.017 -6.447,-41.83 -9.562,-59.437 -0.871,-6.437 -2.175,-11.772 -3.907,-15.997 -1.736,-4.244 -4.214,-7.711 -7.435,-10.418 -3.228,-2.713 -7.401,-4.746 -12.522,-6.094 -5.125,-1.36 -11.508,-2.376 -19.156,-3.05 -5.357,-0.68 -8.122,-3.026 -7.908,-5.733 0.21,-2.708 3.652,-4.427 9.387,-4.427 8.31,0 59.083,0.121 65.869,0 6.037,-0.108 39.158,0 42.315,0 12.036,0 23.132,0.6 33.291,1.782 10.162,1.188 19.719,3.123 28.676,5.837 8.95,2.707 17.497,6.351 25.638,10.926 8.134,4.568 16.056,10.24 23.759,17.013 7.215,6.1 14.083,13.799 20.591,23.114 6.507,9.315 11.954,20.149 16.339,32.514 4.387,12.359 7.435,26.158 9.15,41.396 1.709,15.243 1.409,31.662 -0.916,49.277 -2.905,22.011 -8.978,41.401 -18.208,58.163 -9.237,16.762 -19.871,30.561 -31.9,41.401 -10.472,9.818 -25.486,18.288 -45.048,25.398 -19.571,7.11 -43.823,10.669 -72.764,10.669 -16.622,0 -31.741,-0.509 -45.361,-1.525 -13.62,-1.017 -26.203,-2.879 -37.734,-5.586 -11.535,-2.713 -22.08,-6.436 -31.622,-11.177 -9.548,-4.746 -18.417,-10.84 -26.601,-18.287 -3.081,-2.713 -6.349,-6.18 -9.802,-10.412 -3.457,-4.238 -6.463,-9.143 -9.015,-14.735 -2.562,-5.586 -4.527,-11.857 -5.901,-18.796 -1.38,-6.945 -1.505,-14.649 -0.389,-23.107 1.878,-14.228 6.295,-24.896 13.253,-32.006 6.955,-7.111 13.724,-10.67 20.321,-10.67 5.439,0 10.353,1.856 14.736,5.592 4.379,3.718 6.012,9.818 4.893,18.288 -0.714,5.408 -2.712,9.143 -5.988,11.171 -3.277,2.033 -6.086,3.215 -8.422,3.558 -7.256,0.674 -12.929,2.958 -17.025,6.859 -4.1,3.889 -6.701,10.069 -7.819,18.539 -0.938,7.11 0.906,14.809 5.544,23.114 4.635,8.292 12.289,16.002 22.956,23.113 10.668,7.11 24.352,13.033 41.066,17.779 13.109,3.72 28.341,5.957 45.63,6.759 -0.001,0.003 -0.005,0.022 -0.005,0.022 16.595,0.814 52.593,3.031 80.379,-4.3 0.445,-0.114 0.897,-0.239 1.351,-0.366 6.182,-1.717 11.933,-3.92 16.927,-6.745 -0.002,-0.003 -0.003,-0.007 -0.004,-0.01 6.561,-3.639 13.153,-8.768 19.777,-15.423 8.589,-8.636 16.462,-20.493 23.607,-35.559 7.149,-15.072 12.286,-34.462 15.415,-58.163 1.923,-14.57 2.421,-29.214 1.502,-43.943 -0.922,-14.729 -3.162,-28.699 -6.716,-41.909 -3.564,-13.205 -8.186,-25.398 -13.87,-36.576 -5.693,-11.17 -12.342,-20.492 -19.954,-27.939 -9.645,-9.481 -19.37,-16.089 -29.195,-19.806 -9.823,-3.73 -18.892,-5.592 -27.202,-5.592 -9.746,0 -16.907,1.605 -21.483,4.826 -4.583,3.215 -7.467,10.418 -8.654,21.589 -0.298,4.397 0.181,13.29 1.423,26.671 C -3.515,-33.611 -1.929,-17.951 0,0" />
        </g>
        <g
           transform="translate(625.5449,947.2668)"
           id="g3922">
          <path
             id="path3924"
             style="fill:#e5731f;fill-opacity:1;fill-rule:nonzero;stroke:none"
             d="m 0,0 c -13.721,0 -27.596,-3.504 -39.068,-9.865 -20.534,-11.388 -32.375,-30.953 -30.906,-51.059 2.094,-28.624 20.633,-45.917 38.076,-50.357 2.884,-0.734 5.862,-1.106 8.849,-1.106 7.774,0 15.318,2.537 21.244,7.143 8.067,6.27 12.51,15.732 12.511,26.643 0,12.085 -5.986,23.091 -16.013,29.441 -5.125,3.244 -10.759,4.959 -16.292,4.959 -3.735,0 -7.263,-0.774 -10.489,-2.301 -2.158,-1.02 -3.788,-2.819 -4.592,-5.066 -0.804,-2.246 -0.684,-4.671 0.336,-6.828 1.469,-3.108 4.641,-5.116 8.081,-5.116 1.326,0 2.609,0.29 3.812,0.859 0.789,0.372 1.732,0.561 2.802,0.561 2.169,0 4.579,-0.769 6.784,-2.164 2.317,-1.467 7.705,-5.801 7.705,-14.345 0,-5.349 -1.94,-9.684 -5.611,-12.536 -2.8,-2.175 -6.469,-3.373 -10.331,-3.374 -1.492,0 -2.969,0.184 -4.389,0.546 -11.235,2.859 -23.218,14.588 -24.663,34.344 -0.972,13.279 7.16,26.038 21.751,34.131 8.849,4.908 19.61,7.611 30.302,7.611 14.783,0 29.533,-5.071 42.656,-14.663 l 42.687,-31.198 2.15,2.218 -32.522,41.688 C 38.33,1.367 34.598,26.6 44.888,47.664 53.046,64.365 68.124,74.74 84.255,74.74 c 20.441,-0.01 31.659,-14.541 34.213,-24.305 1.31,-5.014 0.303,-10.328 -2.696,-14.215 -2.897,-3.756 -7.363,-5.745 -12.94,-5.752 -6.147,0 -11.654,2.922 -14.734,7.817 -1.987,3.161 -2.593,6.802 -1.507,9.058 1.037,2.15 1.174,4.575 0.386,6.827 -0.787,2.253 -2.404,4.064 -4.553,5.099 -1.222,0.59 -2.526,0.889 -3.874,0.889 -3.41,0 -6.571,-1.985 -8.053,-5.058 -3.825,-7.938 -2.898,-17.781 2.478,-26.328 6.369,-10.125 17.53,-16.171 29.906,-16.171 11.13,0.015 20.733,4.528 27.04,12.708 6.351,8.237 8.532,19.319 5.833,29.644 -4.739,18.126 -22.874,37.64 -51.515,37.654 -22.997,0 -44.227,-14.217 -55.405,-37.101 -9,-18.427 -9.99,-39.472 -2.876,-59.607 C 17.486,-1.378 8.77,0 0,0" />
        </g>
        <g
           transform="translate(605.3414,985.5862)"
           id="g3926">
          <path
             id="path3928"
             style="fill:#e5731f;fill-opacity:1;fill-rule:nonzero;stroke:none"
             d="M 0,0 C -26.217,4.545 -39.985,23.112 -44.436,40.052 -27.021,37.203 -7.079,25.346 0,0 m 10.829,-18.894 10.166,-0.178 -1.133,10.104 c -5.207,46.449 -41.49,67.604 -72.997,67.604 -0.714,0 -1.422,-0.01 -2.128,-0.032 l -9.253,-0.268 0.597,-9.237 c 2.143,-33.18 28.506,-67.189 74.748,-67.993" />
        </g>
        <g
           transform="translate(731.6909,944.112)"
           id="g3930">
          <path
             id="path3932"
             style="fill:#e5731f;fill-opacity:1;fill-rule:nonzero;stroke:none"
             d="m 0,0 c -12.154,0 -22.725,4.191 -26.349,7.167 -1.593,1.308 -3.604,2.029 -5.664,2.029 -2.688,0 -5.206,-1.19 -6.911,-3.264 -3.125,-3.807 -2.571,-9.447 1.236,-12.573 8.3,-6.816 23.075,-11.221 37.639,-11.221 4.635,0 9.191,0.444 13.542,1.319 13.694,2.754 26.837,11.164 35.602,22.683 5.316,-8.527 13.294,-15.775 22.693,-20.569 7.415,-3.782 15.032,-5.699 22.638,-5.699 7.604,0 14.717,1.915 21.141,5.693 14.078,8.286 21.295,22.057 19.305,36.838 -1.849,13.732 -11.577,25.256 -24.207,28.673 -0.765,0.208 -1.553,0.313 -2.34,0.313 -4.022,0 -7.566,-2.715 -8.617,-6.603 -0.624,-2.303 -0.313,-4.711 0.875,-6.781 1.188,-2.069 3.112,-3.552 5.415,-4.175 5.778,-1.563 10.265,-7.113 11.167,-13.81 1.012,-7.527 -2.873,-14.473 -10.659,-19.055 -3.672,-2.16 -7.717,-3.256 -12.019,-3.256 -5.93,0 -11.203,2.055 -14.581,3.778 C 69.205,6.946 61.102,17.324 60.2,26.724 c -1.571,16.347 1.536,37.567 25.258,45.826 6.641,2.312 14.757,3.534 23.471,3.534 21.161,0 51.384,-7.553 72.75,-28.754 l 6.292,-6.243 6.292,6.243 c 21.363,21.198 51.588,28.751 72.752,28.751 8.712,0 16.826,-1.221 23.466,-3.531 23.72,-8.257 26.829,-29.478 25.261,-45.826 -0.902,-9.4 -9.006,-19.778 -19.708,-25.237 -3.379,-1.724 -8.651,-3.779 -14.581,-3.779 -4.301,0 -8.346,1.096 -12.018,3.257 -7.788,4.584 -11.674,11.529 -10.661,19.056 0.903,6.696 5.391,12.246 11.17,13.809 4.753,1.286 7.575,6.201 6.289,10.956 -1.054,3.887 -4.599,6.602 -8.623,6.602 -0.786,0 -1.571,-0.105 -2.334,-0.312 -12.631,-3.417 -22.36,-14.939 -24.208,-28.671 -1.991,-14.781 5.226,-28.553 19.307,-36.84 6.421,-3.778 13.534,-5.693 21.138,-5.693 7.606,0 15.222,1.917 22.638,5.699 9.399,4.794 17.377,12.041 22.694,20.569 8.765,-11.519 21.908,-19.928 35.601,-22.682 4.35,-0.876 8.907,-1.32 13.544,-1.32 14.562,0 29.336,4.405 37.637,11.221 1.845,1.514 2.989,3.655 3.224,6.03 0.233,2.375 -0.472,4.698 -1.986,6.544 -1.705,2.074 -4.223,3.264 -6.908,3.264 -2.06,0 -4.071,-0.721 -5.664,-2.029 C 398.664,4.192 388.09,0 375.941,0 c -3.405,0 -6.76,0.327 -9.97,0.974 -15.405,3.098 -32.032,17.709 -32.032,35.911 0,0.599 -0.068,1.207 -0.207,1.855 -1.631,24.864 -14.901,42.86 -37.376,50.682 -8.501,2.96 -18.687,4.524 -29.457,4.524 -28.543,0 -57.938,-10.515 -78.928,-28.181 -20.987,17.666 -50.382,28.181 -78.929,28.181 -10.77,0 -20.957,-1.564 -29.456,-4.524 C 57.112,81.6 43.842,63.606 42.208,38.745 42.069,38.094 42,37.484 42,36.885 42,18.682 25.374,4.072 9.97,0.974 6.76,0.328 3.405,0 0,0" />
        </g>
        <g
           transform="translate(1110.9467,959.8681)"
           id="g3934">
          <path
             id="path3936"
             style="fill:#e5731f;fill-opacity:1;fill-rule:nonzero;stroke:none"
             d="m 0,0 c 12.324,0 23.485,6.045 29.854,16.171 5.378,8.548 6.305,18.391 2.478,26.328 -1.48,3.073 -4.639,5.059 -8.049,5.059 -1.35,0 -2.654,-0.3 -3.875,-0.89 -2.149,-1.035 -3.767,-2.846 -4.556,-5.099 -0.787,-2.252 -0.65,-4.677 0.386,-6.827 1.086,-2.256 0.481,-5.897 -1.508,-9.058 -3.079,-4.895 -8.585,-7.817 -14.757,-7.817 -5.552,0.006 -10.018,1.995 -12.915,5.751 -2.999,3.891 -4.006,9.205 -2.693,14.216 2.551,9.764 13.765,24.294 34.226,24.304 16.114,0 31.192,-10.374 39.351,-27.075 10.288,-21.064 6.557,-46.297 -9.98,-67.498 l -32.519,-41.685 2.149,-2.218 42.686,31.195 c 13.123,9.592 27.871,14.663 42.651,14.663 10.691,0 21.453,-2.703 30.305,-7.611 14.591,-8.092 22.723,-20.851 21.752,-34.131 -1.444,-19.757 -13.43,-31.485 -24.669,-34.345 -1.417,-0.363 -2.894,-0.547 -4.388,-0.547 -3.861,0 -7.529,1.199 -10.327,3.376 -3.67,2.852 -5.611,7.187 -5.611,12.536 0,8.544 5.389,12.878 7.707,14.344 2.206,1.397 4.614,2.167 6.781,2.167 1.069,0 2.011,-0.189 2.799,-0.562 1.207,-0.571 2.491,-0.86 3.816,-0.86 3.44,0 6.611,2.007 8.079,5.113 1.021,2.157 1.141,4.583 0.337,6.83 -0.803,2.247 -2.434,4.046 -4.591,5.067 -3.227,1.526 -6.756,2.3 -10.49,2.3 -5.533,0 -11.165,-1.715 -16.29,-4.958 -10.028,-6.35 -16.015,-17.355 -16.015,-29.441 0,-10.91 4.443,-20.372 12.51,-26.643 5.929,-4.607 13.471,-7.143 21.238,-7.143 h 0.007 c 2.989,0 5.967,0.372 8.847,1.106 17.447,4.442 35.988,21.735 38.078,50.358 1.471,20.107 -10.371,39.671 -30.906,51.058 -11.472,6.361 -25.346,9.864 -39.068,9.864 -8.77,0 -17.486,-1.378 -25.957,-4.101 7.114,20.136 6.123,41.181 -2.879,59.607 C 62.818,65.789 41.589,80.005 18.567,80.005 -10.05,79.992 -28.184,60.478 -32.922,42.354 -35.623,32.029 -33.443,20.947 -27.093,12.709 -20.782,4.529 -11.178,0.015 0,0" />
        </g>
        <g
           transform="translate(1278.4159,1025.6379)"
           id="g3938">
          <path
             id="path3940"
             style="fill:#e5731f;fill-opacity:1;fill-rule:nonzero;stroke:none"
             d="M 0,0 C -4.451,-16.94 -18.219,-35.506 -44.435,-40.052 -37.356,-14.706 -17.414,-2.848 0,0 m 19.485,9.047 0.597,9.237 -9.252,0.269 c -0.724,0.022 -1.454,0.034 -2.184,0.034 -31.483,0 -67.738,-21.157 -72.943,-67.606 l -1.134,-10.105 10.168,0.178 c 46.237,0.804 72.601,34.813 74.748,67.993" />
        </g>
        <g
           transform="translate(728.3739,372.3539)"
           id="g3942">
          <path
             id="path3944"
             style="fill:#e5731f;fill-opacity:1;fill-rule:nonzero;stroke:none"
             d="m 0,0 c -12.323,0 -23.482,-6.045 -29.854,-16.17 -5.377,-8.549 -6.304,-18.392 -2.478,-26.33 1.482,-3.073 4.642,-5.059 8.05,-5.059 1.35,0 2.654,0.3 3.876,0.891 2.15,1.035 3.767,2.846 4.554,5.099 0.788,2.252 0.651,4.677 -0.386,6.827 -1.087,2.256 -0.481,5.897 1.508,9.059 3.079,4.894 8.586,7.816 14.757,7.816 5.553,-0.007 10.019,-1.995 12.916,-5.75 2.999,-3.889 4.006,-9.204 2.695,-14.217 -2.553,-9.764 -13.769,-24.295 -34.228,-24.303 -16.114,0 -31.192,10.374 -39.352,27.075 -10.288,21.065 -6.556,46.298 9.983,67.497 l 32.519,41.685 -2.15,2.218 -42.684,-31.195 c -13.123,-9.591 -27.874,-14.66 -42.656,-14.661 -10.691,0 -21.452,2.702 -30.303,7.61 -14.591,8.093 -22.722,20.851 -21.75,34.128 1.445,19.758 13.428,31.487 24.664,34.346 1.422,0.362 2.9,0.546 4.394,0.546 3.86,0 7.527,-1.198 10.324,-3.374 3.672,-2.852 5.612,-7.187 5.612,-12.536 0,-8.544 -5.388,-12.878 -7.703,-14.344 -2.209,-1.396 -4.621,-2.165 -6.79,-2.165 -1.069,0 -2.01,0.189 -2.794,0.56 -1.206,0.571 -2.49,0.862 -3.818,0.862 -3.438,0 -6.609,-2.009 -8.079,-5.118 -1.02,-2.157 -1.14,-4.582 -0.336,-6.828 0.804,-2.247 2.434,-4.046 4.591,-5.066 3.228,-1.527 6.758,-2.301 10.492,-2.301 5.534,0 11.167,1.715 16.29,4.959 10.027,6.35 16.013,17.356 16.013,29.441 -10e-4,10.912 -4.444,20.374 -12.511,26.643 -5.931,4.609 -13.474,7.147 -21.241,7.147 -2.987,0 -5.966,-0.374 -8.852,-1.11 -17.443,-4.44 -35.982,-21.733 -38.076,-50.358 -1.469,-20.105 10.372,-39.669 30.905,-51.056 11.475,-6.364 25.349,-9.868 39.068,-9.868 8.77,0 17.486,1.379 25.959,4.103 -7.115,-20.135 -6.125,-41.18 2.876,-59.606 11.178,-22.885 32.407,-37.101 55.401,-37.101 h 0.028 c 28.62,0.012 46.753,19.526 51.489,37.652 2.7,10.325 0.52,21.408 -5.831,29.646 C 20.785,-4.528 11.182,-0.015 0,0" />
        </g>
        <g
           transform="translate(560.9054,306.584)"
           id="g3946">
          <path
             id="path3948"
             style="fill:#e5731f;fill-opacity:1;fill-rule:nonzero;stroke:none"
             d="M 0,0 C 4.451,16.94 18.219,35.507 44.436,40.052 37.357,14.706 17.415,2.848 0,0 m -19.483,-9.047 -0.597,-9.237 9.252,-0.269 c 0.692,-0.02 1.383,-0.029 2.079,-0.029 31.532,0 67.841,21.155 73.047,67.601 L 65.431,59.124 55.265,58.946 C 9.023,58.142 -17.34,24.133 -19.483,-9.047" />
        </g>
        <g
           transform="translate(1213.7742,384.9548)"
           id="g3950">
          <path
             id="path3952"
             style="fill:#e5731f;fill-opacity:1;fill-rule:nonzero;stroke:none"
             d="m 0,0 h 0.001 c 13.719,0 27.595,3.504 39.07,9.867 20.534,11.387 32.377,30.95 30.906,51.056 -2.091,28.622 -20.63,45.916 -38.076,50.358 -2.887,0.734 -5.864,1.106 -8.848,1.106 -7.769,0 -15.315,-2.536 -21.246,-7.143 -8.067,-6.271 -12.51,-15.733 -12.51,-26.642 0,-12.087 5.986,-23.092 16.014,-29.441 5.125,-3.246 10.758,-4.961 16.291,-4.961 3.735,0 7.264,0.775 10.49,2.302 2.156,1.021 3.787,2.82 4.591,5.067 0.804,2.247 0.683,4.673 -0.337,6.829 -1.47,3.108 -4.64,5.116 -8.078,5.116 -1.327,0 -2.612,-0.29 -3.82,-0.862 -0.785,-0.373 -1.725,-0.562 -2.794,-0.562 -2.166,0 -4.576,0.77 -6.785,2.167 -2.316,1.466 -7.705,5.799 -7.705,14.345 0,5.348 1.94,9.683 5.611,12.536 2.796,2.176 6.462,3.374 10.322,3.374 1.494,0 2.974,-0.184 4.397,-0.547 C 38.73,91.106 50.714,79.378 52.158,59.621 53.13,46.342 44.998,33.583 30.406,25.492 21.557,20.584 10.795,17.881 0.102,17.88 -14.679,17.879 -29.427,22.949 -42.55,32.542 l -42.683,31.192 -2.15,-2.218 32.518,-41.681 c 16.537,-21.201 20.268,-46.434 9.98,-67.498 -8.159,-16.7 -23.238,-27.075 -39.369,-27.075 -20.443,0.008 -31.658,14.54 -34.209,24.306 -1.312,5.01 -0.305,10.323 2.693,14.213 2.895,3.756 7.361,5.744 12.942,5.751 6.145,0 11.652,-2.922 14.73,-7.815 1.989,-3.163 2.595,-6.804 1.508,-9.06 -1.035,-2.15 -1.173,-4.575 -0.385,-6.827 0.788,-2.253 2.406,-4.064 4.553,-5.098 1.223,-0.591 2.526,-0.891 3.875,-0.891 3.41,0 6.57,1.986 8.052,5.059 3.825,7.938 2.899,17.782 -2.478,26.331 -6.369,10.124 -17.529,16.168 -29.902,16.168 -11.13,-0.015 -20.735,-4.528 -27.045,-12.708 -6.35,-8.237 -8.53,-19.32 -5.83,-29.644 4.738,-18.126 22.872,-37.64 51.49,-37.652 h 0.023 c 22.996,0 44.227,14.216 55.407,37.101 8.999,18.427 9.99,39.471 2.875,59.606 C -17.485,1.379 -8.769,0 0,0" />
        </g>
        <g
           transform="translate(1233.9807,346.6353)"
           id="g3954">
          <path
             id="path3956"
             style="fill:#e5731f;fill-opacity:1;fill-rule:nonzero;stroke:none"
             d="M 0,0 C 26.216,-4.545 39.984,-23.111 44.435,-40.051 27.021,-37.202 7.079,-25.344 0,0 m -10.828,18.895 -10.168,0.178 1.134,-10.105 c 5.205,-46.445 41.513,-67.6 73.045,-67.602 h 0.006 c 0.695,0 1.38,0.011 2.073,0.03 l 9.255,0.269 -0.597,9.237 C 61.773,-15.919 35.409,18.09 -10.828,18.895" />
        </g>
        <g
           transform="translate(1107.6228,388.1092)"
           id="g3958">
          <path
             id="path3960"
             style="fill:#e5731f;fill-opacity:1;fill-rule:nonzero;stroke:none"
             d="m 0,0 c 12.157,0 22.734,-4.191 26.36,-7.167 1.591,-1.307 3.603,-2.027 5.662,-2.027 2.687,0 5.205,1.189 6.911,3.263 1.514,1.845 2.219,4.168 1.986,6.543 -0.235,2.375 -1.379,4.516 -3.224,6.03 -8.299,6.816 -23.073,11.221 -37.638,11.221 -4.634,0 -9.189,-0.443 -13.543,-1.319 -13.693,-2.755 -26.836,-11.165 -35.601,-22.683 -5.317,8.528 -13.295,15.776 -22.694,20.57 -7.414,3.782 -15.03,5.7 -22.636,5.7 -7.606,0 -14.718,-1.916 -21.14,-5.696 -14.081,-8.286 -21.298,-22.058 -19.307,-36.839 1.848,-13.733 11.577,-25.255 24.208,-28.671 0.762,-0.207 1.545,-0.311 2.33,-0.311 4.027,0 7.574,2.714 8.627,6.601 1.286,4.755 -1.536,9.669 -6.289,10.956 -5.779,1.563 -10.267,7.113 -11.17,13.808 -1.013,7.527 2.873,14.473 10.66,19.057 3.673,2.16 7.716,3.256 12.018,3.256 5.926,0 11.201,-2.054 14.582,-3.777 10.702,-5.459 18.806,-15.837 19.708,-25.238 1.568,-16.348 -1.541,-37.569 -25.261,-45.826 -6.637,-2.311 -14.752,-3.532 -23.465,-3.532 -21.161,-0.002 -51.386,7.551 -72.753,28.751 l -6.292,6.243 -6.292,-6.243 c -21.363,-21.197 -51.588,-28.751 -72.752,-28.752 -8.711,0 -16.827,1.221 -23.469,3.533 -23.722,8.258 -26.829,29.478 -25.258,45.826 0.902,9.402 9.005,19.779 19.707,25.237 3.377,1.724 8.647,3.779 14.58,3.779 4.303,0 8.346,-1.096 12.017,-3.257 7.788,-4.583 11.673,-11.528 10.661,-19.055 -0.902,-6.697 -5.389,-12.247 -11.166,-13.81 -2.304,-0.623 -4.228,-2.106 -5.415,-4.176 -1.189,-2.069 -1.5,-4.478 -0.876,-6.78 1.051,-3.887 4.595,-6.602 8.619,-6.602 0.786,0 1.572,0.105 2.337,0.312 12.631,3.417 22.359,14.94 24.208,28.672 1.99,14.781 -5.227,28.553 -19.305,36.838 -6.424,3.78 -13.537,5.697 -21.142,5.697 -7.606,0 -15.221,-1.918 -22.636,-5.701 -9.399,-4.794 -17.377,-12.042 -22.693,-20.57 -8.766,11.519 -21.909,19.928 -35.602,22.682 -4.355,0.877 -8.914,1.322 -13.551,1.322 -14.559,0 -29.329,-4.406 -37.631,-11.223 -3.807,-3.126 -4.361,-8.767 -1.236,-12.573 1.703,-2.074 4.221,-3.264 6.909,-3.264 2.059,0 4.071,0.72 5.666,2.028 3.621,2.976 14.191,7.167 26.348,7.167 3.406,0 6.761,-0.327 9.973,-0.973 15.403,-3.099 32.028,-17.709 32.028,-35.911 0,-0.6 0.069,-1.21 0.208,-1.86 1.634,-24.861 14.904,-42.856 37.377,-50.678 8.496,-2.959 18.681,-4.523 29.452,-4.523 28.55,0 57.946,10.515 78.934,28.181 20.987,-17.666 50.381,-28.18 78.929,-28.181 h 0.003 c 10.768,0 20.953,1.564 29.453,4.523 22.475,7.823 35.745,25.819 37.376,50.683 0.139,0.648 0.207,1.256 0.207,1.855 0,18.201 16.627,32.813 32.032,35.912 C -6.755,-0.327 -3.404,0 0,0" />
        </g>
        <g
           transform="translate(624.7902,746.3604)"
           id="g3962">
          <path
             id="path3964"
             style="fill:#e5731f;fill-opacity:1;fill-rule:nonzero;stroke:none"
             d="m 0,0 c 25.059,-30.082 37.765,-57.082 37.765,-80.249 0,-18.453 -8.138,-39.476 -24.194,-62.516 2.857,-3.847 5.94,-7.762 9.258,-11.745 0.79,-0.948 1.548,-1.889 2.311,-2.832 20.509,28.011 30.491,53.245 30.491,77.093 0,27.845 -13.706,57.835 -41.902,91.684 -16.579,19.904 -27.553,39.948 -32.618,59.576 -1.018,3.945 -4.578,6.7 -8.657,6.7 -0.747,0 -1.495,-0.095 -2.227,-0.283 -4.768,-1.231 -7.647,-6.113 -6.418,-10.883 C -30.458,44.338 -18.282,21.949 0,0" />
        </g>
        <g
           transform="translate(619.5125,568.4371)"
           id="g3966">
          <path
             id="path3968"
             style="fill:#e5731f;fill-opacity:1;fill-rule:nonzero;stroke:none"
             d="m 0,0 c -1.435,1.723 -2.829,3.441 -4.198,5.155 -13.084,-18.059 -22.078,-36.311 -26.715,-54.277 -1.23,-4.769 1.65,-9.651 6.422,-10.883 0.734,-0.188 1.485,-0.283 2.235,-0.283 4.071,0 7.626,2.756 8.645,6.703 3.734,14.473 10.798,29.33 20.996,44.194 C 5.106,-6.312 2.65,-3.181 0,0" />
        </g>
        <g
           transform="translate(638.3632,773.1464)"
           id="g3970">
          <path
             id="path3972"
             style="fill:#e5731f;fill-opacity:1;fill-rule:nonzero;stroke:none"
             d="m 0,0 c 2.305,-3.119 4.745,-6.24 7.346,-9.362 1.442,-1.732 2.838,-3.453 4.208,-5.167 55.429,76.269 19.894,130.918 12.159,141.149 -1.704,2.256 -4.304,3.55 -7.133,3.55 -1.958,0 -3.819,-0.626 -5.38,-1.81 C 9.297,126.921 8.067,124.827 7.739,122.464 7.41,120.1 8.022,117.751 9.461,115.848 15.653,107.654 43.966,63.922 0,0" />
        </g>
        <g
           transform="translate(602.6655,666.111)"
           id="g3974">
          <path
             id="path3976"
             style="fill:#e5731f;fill-opacity:1;fill-rule:nonzero;stroke:none"
             d="m 0,0 c 0,18.453 8.137,39.474 24.192,62.513 -2.858,3.849 -5.938,7.764 -9.256,11.747 -0.78,0.936 -1.532,1.875 -2.291,2.813 -3.188,-4.349 -6.034,-8.467 -8.576,-12.441 -0.747,4.077 -1.96,7.894 -3.675,11.574 -6.881,14.758 -22.888,21.365 -35.7,21.365 -1.338,0 -2.668,-0.07 -3.954,-0.208 -12.922,-1.391 -22.209,-9.198 -24.845,-20.884 -3.268,-14.504 5.319,-23.393 15.279,-25.769 1.822,-0.435 3.702,-0.657 5.587,-0.657 8.341,0 14.787,4.195 16.422,10.686 0.583,2.314 0.23,4.716 -0.994,6.765 -1.225,2.047 -3.173,3.496 -5.486,4.079 -0.717,0.181 -1.453,0.273 -2.187,0.273 -2.98,0 -5.744,-1.485 -7.394,-3.924 -0.091,-0.005 -0.19,-0.007 -0.297,-0.007 -1.23,0 -2.383,0.319 -3.085,0.854 -0.267,0.203 -1.079,0.822 -0.414,3.771 0.926,4.111 4.064,6.483 9.324,7.049 0.663,0.07 1.353,0.106 2.055,0.106 7.128,0 16.113,-3.795 19.494,-11.047 4.516,-9.69 2.905,-21.04 0.864,-35.425 -1.372,-9.667 -2.927,-20.624 -2.93,-33.192 v -0.082 c 0.003,-12.568 1.558,-23.525 2.931,-33.207 2.04,-14.37 3.651,-25.72 -0.865,-35.41 -3.381,-7.249 -12.376,-11.043 -19.516,-11.044 -0.694,0 -1.378,0.035 -2.031,0.104 -5.262,0.567 -8.4,2.938 -9.326,7.05 -0.665,2.948 0.148,3.568 0.415,3.771 0.698,0.533 1.853,0.85 3.09,0.85 0.105,0 0.203,-0.002 0.292,-0.006 1.65,-2.439 4.412,-3.924 7.391,-3.924 0.735,0 1.472,0.092 2.187,0.273 4.776,1.202 7.684,6.067 6.482,10.844 -1.634,6.491 -8.081,10.684 -16.426,10.684 -1.882,0 -3.761,-0.219 -5.582,-0.653 -9.961,-2.375 -18.548,-11.265 -15.28,-25.769 2.636,-11.685 11.923,-19.492 24.846,-20.884 1.279,-0.136 2.604,-0.206 3.938,-0.206 h 0.002 c 12.819,0 28.833,6.605 35.713,21.362 1.714,3.677 2.928,7.493 3.675,11.57 5.556,-8.714 12.258,-17.794 19.967,-27.049 60.02,-72.05 28.126,-121.93 21.123,-131.197 -1.44,-1.902 -2.052,-4.252 -1.723,-6.616 0.329,-2.364 1.558,-4.457 3.462,-5.896 1.563,-1.183 3.424,-1.808 5.381,-1.808 2.83,0 5.429,1.293 7.131,3.547 8.433,11.154 47.023,70.972 -21.645,153.406 C 12.706,-50.168 0,-23.168 0,0" />
        </g>
        <g
           transform="translate(1214.533,746.3604)"
           id="g3978">
          <path
             id="path3980"
             style="fill:#e5731f;fill-opacity:1;fill-rule:nonzero;stroke:none"
             d="m 0,0 c -25.059,-30.082 -37.765,-57.082 -37.765,-80.249 0,-18.453 8.138,-39.476 24.194,-62.516 -2.857,-3.847 -5.94,-7.762 -9.258,-11.745 -0.79,-0.948 -1.548,-1.889 -2.311,-2.832 -20.509,28.011 -30.491,53.245 -30.491,77.093 0,27.845 13.706,57.835 41.902,91.684 16.579,19.904 27.553,39.948 32.618,59.576 1.018,3.945 4.578,6.7 8.657,6.7 0.747,0 1.495,-0.095 2.227,-0.283 4.768,-1.231 7.648,-6.113 6.418,-10.883 C 30.458,44.338 18.282,21.949 0,0" />
        </g>
        <g
           transform="translate(1219.8108,568.4371)"
           id="g3982">
          <path
             id="path3984"
             style="fill:#e5731f;fill-opacity:1;fill-rule:nonzero;stroke:none"
             d="m 0,0 c 1.435,1.723 2.828,3.441 4.198,5.155 13.084,-18.059 22.078,-36.311 26.715,-54.277 1.23,-4.769 -1.65,-9.651 -6.422,-10.883 -0.734,-0.188 -1.485,-0.283 -2.235,-0.283 -4.071,0 -7.626,2.756 -8.645,6.703 C 9.877,-39.112 2.813,-24.255 -7.385,-9.391 -5.106,-6.312 -2.65,-3.181 0,0" />
        </g>
        <g
           transform="translate(1200.9601,773.1464)"
           id="g3986">
          <path
             id="path3988"
             style="fill:#e5731f;fill-opacity:1;fill-rule:nonzero;stroke:none"
             d="m 0,0 c -2.305,-3.119 -4.745,-6.24 -7.346,-9.362 -1.442,-1.732 -2.838,-3.453 -4.208,-5.167 -55.429,76.269 -19.894,130.918 -12.159,141.149 1.704,2.256 4.304,3.55 7.133,3.55 1.958,0 3.819,-0.626 5.38,-1.81 1.903,-1.439 3.132,-3.533 3.461,-5.896 0.329,-2.364 -0.283,-4.713 -1.722,-6.616 C -15.653,107.654 -43.967,63.922 0,0" />
        </g>
        <g
           transform="translate(1236.6577,666.111)"
           id="g3990">
          <path
             id="path3992"
             style="fill:#e5731f;fill-opacity:1;fill-rule:nonzero;stroke:none"
             d="m 0,0 c 0,18.453 -8.137,39.474 -24.192,62.513 2.858,3.849 5.938,7.764 9.256,11.747 0.78,0.936 1.532,1.875 2.291,2.813 3.188,-4.349 6.034,-8.467 8.576,-12.441 0.747,4.077 1.96,7.894 3.675,11.574 6.881,14.758 22.888,21.365 35.7,21.365 1.338,0 2.668,-0.07 3.954,-0.208 C 52.182,95.972 61.469,88.165 64.105,76.479 67.373,61.975 58.786,53.086 48.826,50.71 c -1.822,-0.435 -3.702,-0.657 -5.587,-0.657 -8.341,0 -14.787,4.195 -16.422,10.686 -0.583,2.314 -0.23,4.716 0.994,6.765 1.225,2.047 3.173,3.496 5.486,4.079 0.717,0.181 1.453,0.273 2.187,0.273 2.98,0 5.744,-1.485 7.394,-3.924 0.091,-0.005 0.19,-0.007 0.297,-0.007 1.23,0 2.383,0.319 3.085,0.854 0.267,0.203 1.079,0.822 0.414,3.771 -0.926,4.111 -4.064,6.483 -9.324,7.049 -0.663,0.07 -1.354,0.106 -2.055,0.106 -7.128,0 -16.113,-3.795 -19.494,-11.047 -4.516,-9.69 -2.905,-21.04 -0.864,-35.425 1.372,-9.667 2.927,-20.624 2.93,-33.192 v -0.082 c -0.003,-12.568 -1.558,-23.525 -2.931,-33.207 -2.04,-14.37 -3.651,-25.72 0.865,-35.41 3.381,-7.249 12.376,-11.043 19.516,-11.044 0.694,0 1.378,0.035 2.031,0.104 5.262,0.567 8.4,2.938 9.326,7.05 0.665,2.948 -0.148,3.568 -0.415,3.771 -0.698,0.533 -1.853,0.85 -3.09,0.85 -0.105,0 -0.203,-0.002 -0.292,-0.006 -1.65,-2.439 -4.412,-3.924 -7.391,-3.924 -0.735,0 -1.472,0.092 -2.187,0.273 -4.776,1.202 -7.684,6.067 -6.482,10.844 1.634,6.491 8.081,10.684 16.426,10.684 1.882,0 3.761,-0.219 5.582,-0.653 9.961,-2.375 18.548,-11.265 15.28,-25.769 -2.636,-11.685 -11.923,-19.492 -24.846,-20.884 -1.279,-0.136 -2.604,-0.206 -3.938,-0.206 h -0.002 c -12.819,0 -28.833,6.605 -35.713,21.362 -1.714,3.677 -2.928,7.493 -3.675,11.57 -5.556,-8.714 -12.258,-17.794 -19.967,-27.049 -60.02,-72.05 -28.126,-121.93 -21.123,-131.197 1.44,-1.902 2.052,-4.252 1.723,-6.616 -0.329,-2.364 -1.558,-4.457 -3.462,-5.896 -1.563,-1.183 -3.424,-1.808 -5.381,-1.808 -2.83,0 -5.429,1.293 -7.131,3.547 -8.433,11.154 -47.023,70.972 21.645,153.406 C -12.706,-50.168 0,-23.168 0,0" />
        </g>
      </g>
    </g>
  </g>
</svg>
